<svg version="1.1" viewBox="0.0 0.0 267.8005249343832 268.3490813648294" fill="none" stroke="none" stroke-linecap="square" stroke-miterlimit="10" xmlns:xlink="http://www.w3.org/1999/xlink" xmlns="http://www.w3.org/2000/svg"><clipPath id="p.0"><path d="m0 0l267.80054 0l0 268.3491l-267.80054 0l0 -268.3491z" clip-rule="nonzero"/></clipPath><g clip-path="url(#p.0)"><path fill="#000000" fill-opacity="0.0" d="m0 0l267.80054 0l0 268.3491l-267.80054 0z" fill-rule="evenodd"/><path fill="#ffffff" d="m86.08264 106.3829l0 0c0 -29.730888 24.101639 -53.83253 53.83252 -53.83253l0 0c14.277283 0 27.969803 5.671627 38.065353 15.767185c10.095551 10.095558 15.767181 23.78807 15.767181 38.065346l0 0c0 29.730888 -24.101639 53.832527 -53.832535 53.832527l0 0c-29.73088 0 -53.83252 -24.101639 -53.83252 -53.832527z" fill-rule="evenodd"/><path fill="#4a86e8" d="m75.968834 96.605965l0 0c0 -29.730888 24.101646 -53.83253 53.832527 -53.83253l0 0c14.277283 0 27.969788 5.671623 38.065353 15.767181c10.095551 10.095554 15.767181 23.788074 15.767181 38.06535l0 0c0 29.73088 -24.101654 53.832527 -53.832535 53.832527l0 0c-29.73088 0 -53.832527 -24.101646 -53.832527 -53.832527z" fill-rule="evenodd"/><path fill="#ff0000" fill-opacity="0.6462" d="m88.27325 108.91037l0 0c0 -29.73088 24.101639 -53.832527 53.832527 -53.832527l0 0c14.277267 0 27.969788 5.671623 38.065353 15.767181c10.095551 10.095558 15.767181 23.78807 15.767181 38.065346l0 0c0 29.73088 -24.101654 53.832535 -53.832535 53.832535l0 0c-29.730888 0 -53.832527 -24.101654 -53.832527 -53.832535z" fill-rule="evenodd"/><path fill="#b7b7b7" d="m46.551334 88.44882l0 0c0 -6.5056534 5.273876 -11.779533 11.77953 -11.779533l0 0l0 0c3.1241226 0 6.1202927 1.2410583 8.329384 3.4501495c2.2090912 2.2090836 3.450142 5.2052536 3.450142 8.329384l0 28.472435c0 6.5056534 -5.2738724 11.779533 -11.779526 11.779533l0 0l0 0c-6.5056534 0 -11.77953 -5.27388 -11.77953 -11.779533z" fill-rule="evenodd"/><path fill="#b7b7b7" d="m55.589836 81.76378l0 0c0 -22.567802 15.870422 -43.35604 41.443314 -54.28548c25.572891 -10.929441 56.815193 -10.276421 81.58477 1.7052708c24.769562 11.981691 39.160034 33.402435 37.57863 55.93718l-8.062897 -0.33730316c1.4718628 -19.614632 -11.444443 -38.27767 -33.723755 -48.72821c-22.279312 -10.450541 -50.40358 -11.038359 -73.43097 -1.5347633c-23.02739 9.503593 -37.32171 27.597912 -37.32171 47.243305z" fill-rule="evenodd"/><path fill="#b7b7b7" d="m201.65352 88.44882l0 0c0 -6.5056534 5.2738647 -11.779533 11.779526 -11.779533l0 0l0 0c3.1241302 0 6.120285 1.2410583 8.329376 3.4501495c2.2090912 2.2090836 3.4501495 5.2052536 3.4501495 8.329384l0 28.472435c0 6.5056534 -5.27388 11.779533 -11.779526 11.779533l0 0l0 0c-6.505661 0 -11.779526 -5.27388 -11.779526 -11.779533z" fill-rule="evenodd"/><path fill="#b7b7b7" d="m67.8418 261.2124l0 -48.472427l0 0c0 -26.770584 30.493988 -48.472443 68.11023 -48.472443c37.616257 0 68.110245 21.701859 68.110245 48.472443l0 48.472427z" fill-rule="evenodd"/></g></svg>