<svg version="1.1" viewBox="0.0 0.0 300.0 300.0" fill="none" stroke="none" stroke-linecap="square" stroke-miterlimit="10" xmlns:xlink="http://www.w3.org/1999/xlink" xmlns="http://www.w3.org/2000/svg"><clipPath id="p.0"><path d="m0 0l300.0 0l0 300.0l-300.0 0l0 -300.0z" clip-rule="nonzero"/></clipPath><g clip-path="url(#p.0)"><path fill="#000000" fill-opacity="0.0" d="m0 0l300.0 0l0 300.0l-300.0 0z" fill-rule="evenodd"/><path fill="#ffffff" d="m45.957043 163.84819l0 0c0 -60.03813 48.67053 -108.708664 108.708664 -108.708664l0 0c28.83133 0 56.481796 11.4531975 76.86862 31.84003c20.386826 20.386826 31.840027 48.0373 31.840027 76.86863l0 0c0 60.03813 -48.670517 108.708664 -108.70865 108.708664l0 0c-60.03814 0 -108.708664 -48.670532 -108.708664 -108.708664z" fill-rule="evenodd"/><path fill="#4a86e8" d="m29.957043 148.52846l0 0c0 -60.03813 48.67053 -108.70866 108.708664 -108.70866l0 0c28.83133 0 56.481796 11.453201 76.86862 31.840034c20.386826 20.386826 31.840027 48.0373 31.840027 76.86862l0 0c0 60.038147 -48.670517 108.708664 -108.70865 108.708664l0 0c-60.03814 0 -108.708664 -48.670517 -108.708664 -108.708664z" fill-rule="evenodd"/><path fill="#ff0000" fill-opacity="0.6462" d="m45.957043 164.52846l0 0c0 -60.03813 48.67053 -108.70866 108.708664 -108.70866l0 0c28.83133 0 56.481796 11.453201 76.86862 31.840034c20.386826 20.386826 31.840027 48.037292 31.840027 76.86862l0 0c0 60.038147 -48.670517 108.708664 -108.70865 108.708664l0 0c-60.03814 0 -108.708664 -48.670517 -108.708664 -108.708664z" fill-rule="evenodd"/><path fill="#000000" fill-opacity="0.0" d="m4.296588 169.6163c6.916011 -5.1019287 24.298336 -40.777344 41.496063 -30.611557c17.197723 10.165802 41.884953 77.81235 61.69029 91.60631c19.805336 13.793961 36.584427 19.804016 57.141724 -8.842529c20.557312 -28.646545 50.10193 -132.76465 66.2021 -163.03674c16.100174 -30.27209 25.332474 -15.496502 30.398941 -18.595802" fill-rule="evenodd"/><path stroke="#471793" stroke-width="12.0" stroke-linejoin="round" stroke-linecap="butt" d="m4.296588 169.6163c6.916011 -5.1019287 24.298336 -40.777344 41.496063 -30.611557c17.197723 10.165802 41.884953 77.81235 61.69029 91.60631c19.805336 13.793961 36.584427 19.804016 57.141724 -8.842529c20.557312 -28.646545 50.10193 -132.76465 66.2021 -163.03674c16.100174 -30.27209 25.332474 -15.496502 30.398941 -18.595802" fill-rule="evenodd"/><path fill="#000000" fill-opacity="0.0" d="m5.9478393 148.76376l0 0c0 -9.454071 7.664039 -17.118118 17.118109 -17.118118l0 0c4.5400066 0 8.894064 1.8035126 12.104332 5.0137787c3.21027 3.210266 5.0137787 7.564331 5.0137787 12.10434l0 0c0 9.454071 -7.6640396 17.118103 -17.11811 17.118103l0 0c-9.45407 0 -17.118109 -7.664032 -17.118109 -17.118103z" fill-rule="evenodd"/><path stroke="#471793" stroke-width="12.0" stroke-linejoin="round" stroke-linecap="butt" d="m5.9478393 148.76376l0 0c0 -9.454071 7.664039 -17.118118 17.118109 -17.118118l0 0c4.5400066 0 8.894064 1.8035126 12.104332 5.0137787c3.21027 3.210266 5.0137787 7.564331 5.0137787 12.10434l0 0c0 9.454071 -7.6640396 17.118103 -17.11811 17.118103l0 0c-9.45407 0 -17.118109 -7.664032 -17.118109 -17.118103z" fill-rule="evenodd"/><path fill="#000000" fill-opacity="0.0" d="m183.21034 194.10632c5.3285217 -6.6894226 18.479446 -31.519684 31.97113 -40.13649c13.491699 -8.616791 40.81584 -9.636917 48.97902 -11.564301" fill-rule="evenodd"/><path stroke="#071f76" stroke-width="12.0" stroke-linejoin="round" stroke-linecap="butt" d="m183.21034 194.10632c5.3285217 -6.6894226 18.479446 -31.519684 31.97113 -40.13649c13.491699 -8.616791 40.81584 -9.636917 48.97902 -11.564301" fill-rule="evenodd"/><path fill="#000000" fill-opacity="0.0" d="m184.56955 195.46707c2.8342133 -2.4943237 12.129929 -12.584869 17.005249 -14.965881c4.8753357 -2.381012 8.391525 -1.5879211 12.246719 0.6797943c3.8552094 2.2677155 6.4628143 4.649597 10.8845215 12.926498c4.421692 8.276901 9.5590515 28.950134 15.64566 36.73491c6.086624 7.784775 17.395004 8.311462 20.874008 9.973755" fill-rule="evenodd"/><path stroke="#000000" stroke-width="12.0" stroke-linejoin="round" stroke-linecap="butt" d="m184.56955 195.46707c2.8342133 -2.4943237 12.129929 -12.584869 17.005249 -14.965881c4.8753357 -2.381012 8.391525 -1.5879211 12.246719 0.6797943c3.8552094 2.2677155 6.4628143 4.649597 10.8845215 12.926498c4.421692 8.276901 9.5590515 28.950134 15.64566 36.73491c6.086624 7.784775 17.395004 8.311462 20.874008 9.973755" fill-rule="evenodd"/><path fill="#000000" fill-opacity="0.0" d="m90.395874 230.11237l0 0c0 -9.454071 7.6640396 -17.118118 17.11811 -17.118118l0 0c4.540001 0 8.894058 1.8035126 12.104332 5.0137787c3.210266 3.210266 5.0137787 7.564331 5.0137787 12.10434l0 0c0 9.454071 -7.6640396 17.118103 -17.11811 17.118103l0 0c-9.454071 0 -17.11811 -7.664032 -17.11811 -17.118103z" fill-rule="evenodd"/><path stroke="#471793" stroke-width="12.0" stroke-linejoin="round" stroke-linecap="butt" d="m90.395874 230.11237l0 0c0 -9.454071 7.6640396 -17.118118 17.11811 -17.118118l0 0c4.540001 0 8.894058 1.8035126 12.104332 5.0137787c3.210266 3.210266 5.0137787 7.564331 5.0137787 12.10434l0 0c0 9.454071 -7.6640396 17.118103 -17.11811 17.118103l0 0c-9.454071 0 -17.11811 -7.664032 -17.11811 -17.118103z" fill-rule="evenodd"/><path fill="#000000" fill-opacity="0.0" d="m174.8439 182.45094l0 0c0 -9.454071 7.6640472 -17.118118 17.118118 -17.118118l0 0c4.5399933 0 8.894058 1.8035126 12.104324 5.0137787c3.210266 3.2102814 5.0137787 7.564331 5.0137787 12.10434l0 0c0 9.454071 -7.664032 17.118103 -17.118103 17.118103l0 0c-9.454071 0 -17.118118 -7.664032 -17.118118 -17.118103z" fill-rule="evenodd"/><path stroke="#471793" stroke-width="12.0" stroke-linejoin="round" stroke-linecap="butt" d="m174.8439 182.45094l0 0c0 -9.454071 7.6640472 -17.118118 17.118118 -17.118118l0 0c4.5399933 0 8.894058 1.8035126 12.104324 5.0137787c3.210266 3.2102814 5.0137787 7.564331 5.0137787 12.10434l0 0c0 9.454071 -7.664032 17.118103 -17.118103 17.118103l0 0c-9.454071 0 -17.118118 -7.664032 -17.118118 -17.118103z" fill-rule="evenodd"/><path fill="#000000" fill-opacity="0.0" d="m259.29193 42.137215l0 0c0 -9.454071 7.664032 -17.11811 17.118134 -17.11811l0 0c4.539978 0 8.894043 1.8035088 12.104309 5.013777c3.210266 3.210268 5.013794 7.564329 5.013794 12.104334l0 0c0 9.454071 -7.664032 17.11811 -17.118103 17.11811l0 0c-9.454102 0 -17.118134 -7.6640396 -17.118134 -17.11811z" fill-rule="evenodd"/><path stroke="#471793" stroke-width="12.0" stroke-linejoin="round" stroke-linecap="butt" d="m259.29193 42.137215l0 0c0 -9.454071 7.664032 -17.11811 17.118134 -17.11811l0 0c4.539978 0 8.894043 1.8035088 12.104309 5.013777c3.210266 3.210268 5.013794 7.564329 5.013794 12.104334l0 0c0 9.454071 -7.664032 17.11811 -17.118103 17.11811l0 0c-9.454102 0 -17.118134 -7.6640396 -17.118134 -17.11811z" fill-rule="evenodd"/><path fill="#000000" fill-opacity="0.0" d="m259.29193 141.66216l0 0c0 -9.454071 7.664032 -17.118118 17.118134 -17.118118l0 0c4.539978 0 8.894043 1.8035126 12.104309 5.0137787c3.210266 3.210266 5.013794 7.564331 5.013794 12.10434l0 0c0 9.454071 -7.664032 17.118103 -17.118103 17.118103l0 0c-9.454102 0 -17.118134 -7.664032 -17.118134 -17.118103z" fill-rule="evenodd"/><path stroke="#471793" stroke-width="12.0" stroke-linejoin="round" stroke-linecap="butt" d="m259.29193 141.66216l0 0c0 -9.454071 7.664032 -17.118118 17.118134 -17.118118l0 0c4.539978 0 8.894043 1.8035126 12.104309 5.0137787c3.210266 3.210266 5.013794 7.564331 5.013794 12.10434l0 0c0 9.454071 -7.664032 17.118103 -17.118103 17.118103l0 0c-9.454102 0 -17.118134 -7.664032 -17.118134 -17.118103z" fill-rule="evenodd"/><path fill="#000000" fill-opacity="0.0" d="m259.29193 241.18709l0 0c0 -9.454071 7.664032 -17.118118 17.118134 -17.118118l0 0c4.539978 0 8.894043 1.8035126 12.104309 5.0137787c3.210266 3.210266 5.013794 7.564331 5.013794 12.10434l0 0c0 9.454071 -7.664032 17.118118 -17.118103 17.118118l0 0c-9.454102 0 -17.118134 -7.6640472 -17.118134 -17.118118z" fill-rule="evenodd"/><path stroke="#471793" stroke-width="12.0" stroke-linejoin="round" stroke-linecap="butt" d="m259.29193 241.18709l0 0c0 -9.454071 7.664032 -17.118118 17.118134 -17.118118l0 0c4.539978 0 8.894043 1.8035126 12.104309 5.0137787c3.210266 3.210266 5.013794 7.564331 5.013794 12.10434l0 0c0 9.454071 -7.664032 17.118118 -17.118103 17.118118l0 0c-9.454102 0 -17.118134 -7.6640472 -17.118134 -17.118118z" fill-rule="evenodd"/></g></svg>