<svg version="1.1" viewBox="0.0 0.0 300.0 300.0" fill="none" stroke="none" stroke-linecap="square" stroke-miterlimit="10" xmlns:xlink="http://www.w3.org/1999/xlink" xmlns="http://www.w3.org/2000/svg"><clipPath id="p.0"><path d="m0 0l300.0 0l0 300.0l-300.0 0l0 -300.0z" clip-rule="nonzero"/></clipPath><g clip-path="url(#p.0)"><path fill="#000000" fill-opacity="0.0" d="m0 0l300.0 0l0 300.0l-300.0 0z" fill-rule="evenodd"/><path fill="#ffffff" d="m57.195137 149.04547l0 0c0 -60.03814 48.670525 -108.708664 108.70866 -108.708664l0 0c28.83133 0 56.48181 11.453201 76.86864 31.840034c20.38684 20.386826 31.840027 48.0373 31.840027 76.86863l0 0c0 60.03813 -48.670517 108.70865 -108.708664 108.70865l0 0c-60.03813 0 -108.70866 -48.670517 -108.70866 -108.70865z" fill-rule="evenodd"/><path fill="#4a86e8" d="m41.195137 133.72574l0 0c0 -60.03813 48.670525 -108.70866 108.70866 -108.70866l0 0c28.83133 0 56.48181 11.453203 76.86864 31.840029c20.386826 20.386833 31.840027 48.0373 31.840027 76.86863l0 0c0 60.038147 -48.670517 108.708664 -108.708664 108.708664l0 0c-60.03813 0 -108.70866 -48.670517 -108.70866 -108.708664z" fill-rule="evenodd"/><path fill="#ff0000" fill-opacity="0.6462" d="m57.195137 149.72574l0 0c0 -60.03813 48.670525 -108.70866 108.70866 -108.70866l0 0c28.83133 0 56.48181 11.453201 76.86864 31.840027c20.38684 20.386833 31.840027 48.0373 31.840027 76.86863l0 0c0 60.038147 -48.670517 108.70868 -108.708664 108.70868l0 0c-60.03813 0 -108.70866 -48.670532 -108.70866 -108.70868z" fill-rule="evenodd"/><path fill="#000000" fill-opacity="0.0" d="m15.018052 169.6167c6.916011 -5.1019287 24.262466 -45.464134 41.496063 -30.611557c17.233597 14.852585 42.5175 102.15355 61.90551 119.727036c19.388023 17.573486 33.901146 19.047241 54.42257 -14.286087c20.521439 -33.33333 51.019257 -151.58705 68.70604 -185.71391c17.686783 -34.126858 31.17891 -15.872704 37.41469 -19.047241" fill-rule="evenodd"/><path stroke="#471793" stroke-width="8.0" stroke-linejoin="round" stroke-linecap="butt" d="m15.018052 169.6167c6.916011 -5.1019287 24.262466 -45.464134 41.496063 -30.611557c17.233597 14.852585 42.5175 102.15355 61.90551 119.727036c19.388023 17.573486 33.901146 19.047241 54.42257 -14.286087c20.521439 -33.33333 51.019257 -151.58705 68.70604 -185.71391c17.686783 -34.126858 31.17891 -15.872704 37.41469 -19.047241" fill-rule="evenodd"/><path fill="#000000" fill-opacity="0.0" d="m25.740479 141.54749l0 0c0 -6.575241 5.3302784 -11.905518 11.90551 -11.905518l0 0c3.1575394 0 6.185753 1.2543182 8.418468 3.4870453c2.2327194 2.2327118 3.4870453 5.2609253 3.4870453 8.418472l0 0c0 6.575226 -5.3302803 11.905502 -11.905514 11.905502l0 0c-6.5752316 0 -11.90551 -5.3302765 -11.90551 -11.905502z" fill-rule="evenodd"/><path stroke="#471793" stroke-width="8.0" stroke-linejoin="round" stroke-linecap="butt" d="m25.740479 141.54749l0 0c0 -6.575241 5.3302784 -11.905518 11.90551 -11.905518l0 0c3.1575394 0 6.185753 1.2543182 8.418468 3.4870453c2.2327194 2.2327118 3.4870453 5.2609253 3.4870453 8.418472l0 0c0 6.575226 -5.3302803 11.905502 -11.905514 11.905502l0 0c-6.5752316 0 -11.90551 -5.3302765 -11.90551 -11.905502z" fill-rule="evenodd"/><path fill="#000000" fill-opacity="0.0" d="m104.21729 255.5358l0 0c0 -6.575226 5.3302765 -11.905502 11.90551 -11.905502l0 0c3.1575394 0 6.185753 1.2543182 8.418472 3.4870453c2.2327118 2.2327118 3.4870453 5.2609253 3.4870453 8.418457l0 0c0 6.575226 -5.330284 11.905518 -11.905518 11.905518l0 0c-6.5752335 0 -11.90551 -5.3302917 -11.90551 -11.905518z" fill-rule="evenodd"/><path stroke="#471793" stroke-width="8.0" stroke-linejoin="round" stroke-linecap="butt" d="m104.21729 255.5358l0 0c0 -6.575226 5.3302765 -11.905502 11.90551 -11.905502l0 0c3.1575394 0 6.185753 1.2543182 8.418472 3.4870453c2.2327118 2.2327118 3.4870453 5.2609253 3.4870453 8.418457l0 0c0 6.575226 -5.330284 11.905518 -11.905518 11.905518l0 0c-6.5752335 0 -11.90551 -5.3302917 -11.90551 -11.905518z" fill-rule="evenodd"/><path fill="#000000" fill-opacity="0.0" d="m182.6941 193.24704l0 0c0 -6.575241 5.3302765 -11.905518 11.905518 -11.905518l0 0c3.1575317 0 6.1857452 1.2543335 8.418457 3.4870453c2.232727 2.2327118 3.4870453 5.2609253 3.4870453 8.418472l0 0c0 6.575226 -5.3302765 11.905502 -11.905502 11.905502l0 0c-6.575241 0 -11.905518 -5.3302765 -11.905518 -11.905502z" fill-rule="evenodd"/><path stroke="#471793" stroke-width="8.0" stroke-linejoin="round" stroke-linecap="butt" d="m182.6941 193.24704l0 0c0 -6.575241 5.3302765 -11.905518 11.905518 -11.905518l0 0c3.1575317 0 6.1857452 1.2543335 8.418457 3.4870453c2.232727 2.2327118 3.4870453 5.2609253 3.4870453 8.418472l0 0c0 6.575226 -5.3302765 11.905502 -11.905502 11.905502l0 0c-6.575241 0 -11.905518 -5.3302765 -11.905518 -11.905502z" fill-rule="evenodd"/><path fill="#000000" fill-opacity="0.0" d="m261.17093 40.92136l0 0c0 -6.5752335 5.330261 -11.905512 11.905518 -11.905512l0 0c3.1575317 0 6.18573 1.2543278 8.418457 3.4870434c2.232727 2.2327156 3.48703 5.260929 3.48703 8.418468l0 0c0 6.5752335 -5.330261 11.90551 -11.905487 11.90551l0 0c-6.5752563 0 -11.905518 -5.3302765 -11.905518 -11.90551z" fill-rule="evenodd"/><path stroke="#471793" stroke-width="8.0" stroke-linejoin="round" stroke-linecap="butt" d="m261.17093 40.92136l0 0c0 -6.5752335 5.330261 -11.905512 11.905518 -11.905512l0 0c3.1575317 0 6.18573 1.2543278 8.418457 3.4870434c2.232727 2.2327156 3.48703 5.260929 3.48703 8.418468l0 0c0 6.5752335 -5.330261 11.90551 -11.905487 11.90551l0 0c-6.5752563 0 -11.905518 -5.3302765 -11.905518 -11.90551z" fill-rule="evenodd"/><path fill="#000000" fill-opacity="0.0" d="m261.17093 141.27438l0 0c0 -6.575241 5.330261 -11.905518 11.905518 -11.905518l0 0c3.1575317 0 6.18573 1.2543335 8.418457 3.4870453c2.232727 2.2327118 3.48703 5.2609253 3.48703 8.418472l0 0c0 6.575226 -5.330261 11.905502 -11.905487 11.905502l0 0c-6.5752563 0 -11.905518 -5.3302765 -11.905518 -11.905502z" fill-rule="evenodd"/><path stroke="#471793" stroke-width="8.0" stroke-linejoin="round" stroke-linecap="butt" d="m261.17093 141.27438l0 0c0 -6.575241 5.330261 -11.905518 11.905518 -11.905518l0 0c3.1575317 0 6.18573 1.2543335 8.418457 3.4870453c2.232727 2.2327118 3.48703 5.2609253 3.48703 8.418472l0 0c0 6.575226 -5.330261 11.905502 -11.905487 11.905502l0 0c-6.5752563 0 -11.905518 -5.3302765 -11.905518 -11.905502z" fill-rule="evenodd"/><path fill="#000000" fill-opacity="0.0" d="m261.17093 241.6274l0 0c0 -6.575226 5.330261 -11.905518 11.905518 -11.905518l0 0c3.1575317 0 6.18573 1.2543335 8.418457 3.4870453c2.232727 2.232727 3.48703 5.2609406 3.48703 8.418472l0 0c0 6.575241 -5.330261 11.905518 -11.905487 11.905518l0 0c-6.5752563 0 -11.905518 -5.3302765 -11.905518 -11.905518z" fill-rule="evenodd"/><path stroke="#471793" stroke-width="8.0" stroke-linejoin="round" stroke-linecap="butt" d="m261.17093 241.6274l0 0c0 -6.575226 5.330261 -11.905518 11.905518 -11.905518l0 0c3.1575317 0 6.18573 1.2543335 8.418457 3.4870453c2.232727 2.232727 3.48703 5.2609406 3.48703 8.418472l0 0c0 6.575241 -5.330261 11.905518 -11.905487 11.905518l0 0c-6.5752563 0 -11.905518 -5.3302765 -11.905518 -11.905518z" fill-rule="evenodd"/><path fill="#000000" fill-opacity="0.0" d="m193.93144 194.10632c5.3285217 -6.6894226 18.479431 -31.519684 31.97113 -40.13649c13.491684 -8.616791 40.81584 -9.636917 48.97899 -11.564301" fill-rule="evenodd"/><path stroke="#2e138d" stroke-width="8.0" stroke-linejoin="round" stroke-linecap="butt" d="m193.93144 194.10632c5.3285217 -6.6894226 18.479431 -31.519684 31.97113 -40.13649c13.491684 -8.616791 40.81584 -9.636917 48.97899 -11.564301" fill-rule="evenodd"/><path fill="#000000" fill-opacity="0.0" d="m195.29102 195.46634c2.8342133 -2.4943085 12.129929 -12.584869 17.005249 -14.965881c4.8753357 -2.381012 8.39151 -1.5879211 12.246719 0.6797943c3.8552094 2.2677155 6.4628143 4.649597 10.8845215 12.926498c4.421692 8.2769165 8.956253 28.45845 15.64566 36.73491c6.6894073 8.276474 20.409012 10.769913 24.49083 12.923889" fill-rule="evenodd"/><path stroke="#071f76" stroke-width="8.0" stroke-linejoin="round" stroke-linecap="butt" d="m195.29102 195.46634c2.8342133 -2.4943085 12.129929 -12.584869 17.005249 -14.965881c4.8753357 -2.381012 8.39151 -1.5879211 12.246719 0.6797943c3.8552094 2.2677155 6.4628143 4.649597 10.8845215 12.926498c4.421692 8.2769165 8.956253 28.45845 15.64566 36.73491c6.6894073 8.276474 20.409012 10.769913 24.49083 12.923889" fill-rule="evenodd"/></g></svg>